<?xml version="1.0" standalone="no"?>
<!DOCTYPE svg PUBLIC "-//W3C//DTD SVG 20010904//EN"
 "http://www.w3.org/TR/2001/REC-SVG-20010904/DTD/svg10.dtd">
<svg version="1.0" xmlns="http://www.w3.org/2000/svg"
 width="736.000000pt" height="1104.000000pt" viewBox="0 0 736.000000 1104.000000"
 preserveAspectRatio="xMidYMid meet">

<g transform="translate(0.000000,1104.000000) scale(0.100000,-0.100000)"
fill="#000000" stroke="none">
<path d="M947 10866 c-128 -46 -217 -172 -217 -309 l0 -59 -32 7 c-173 38
-338 -95 -338 -273 0 -107 48 -182 145 -228 56 -26 148 -32 204 -13 31 11 34
9 67 -29 48 -56 128 -94 213 -100 93 -6 166 16 235 73 l55 44 58 -30 c50 -27
66 -30 118 -27 75 5 143 37 173 81 l22 34 73 -5 c86 -5 137 7 200 49 112 74
144 225 72 339 -41 65 -154 110 -227 90 -17 -6 -33 -8 -36 -6 -2 2 -5 28 -7
57 -5 69 -47 136 -104 168 -76 42 -188 26 -252 -35 l-25 -24 -23 50 c-48 105
-137 160 -261 159 -41 0 -92 -6 -113 -13z m232 -35 c21 -11 52 -34 68 -50 30
-30 73 -109 73 -134 0 -28 15 -26 46 7 49 52 90 70 160 71 52 0 66 -4 98 -29
53 -40 79 -103 74 -177 -2 -33 -1 -59 3 -59 3 0 23 7 42 15 52 21 96 19 153
-10 56 -28 84 -61 104 -119 40 -121 -58 -263 -196 -284 -48 -7 -113 -2 -146
12 -12 6 -20 -1 -33 -28 -53 -111 -243 -133 -329 -37 l-19 21 -34 -40 c-45
-52 -103 -85 -176 -100 -119 -24 -248 34 -305 137 -10 17 -12 17 -44 -2 -46
-27 -149 -26 -203 2 -110 57 -154 154 -121 266 32 110 118 183 230 194 41 4
60 0 101 -21 27 -14 50 -24 52 -23 1 2 -4 21 -12 42 -19 54 -18 82 5 157 43
139 169 225 313 213 31 -3 75 -14 96 -24z"/>
<path d="M2995 10673 c-52 -7 -168 -44 -220 -70 -121 -62 -204 -145 -257 -258
-26 -56 -28 -69 -17 -79 22 -20 326 -206 336 -206 6 0 18 19 29 42 27 60 70
116 107 138 44 27 140 27 185 0 87 -53 61 -165 -74 -325 -86 -103 -343 -357
-462 -459 l-92 -79 2 -156 3 -156 555 0 555 0 0 185 0 185 -250 3 -250 2 137
139 c273 277 366 450 356 666 -3 79 -8 101 -39 166 -64 134 -193 231 -343 258
-57 11 -198 13 -261 4z m274 -38 c305 -72 428 -373 276 -675 -59 -116 -136
-212 -302 -377 -90 -89 -163 -164 -163 -167 0 -3 122 -6 270 -6 l270 0 0 -160
0 -160 -530 0 -530 0 0 138 0 139 68 54 c108 87 452 436 520 528 102 138 115
225 47 299 -31 35 -37 37 -107 40 -61 3 -82 0 -115 -16 -46 -24 -94 -75 -123
-132 -11 -22 -23 -40 -26 -40 -3 0 -53 31 -112 68 -59 38 -124 79 -144 91 -21
12 -38 27 -38 32 0 6 12 35 27 66 60 122 212 231 380 272 96 24 244 26 332 6z"/>
<path d="M4238 10649 c-125 -17 -256 -80 -344 -166 -54 -52 -107 -131 -101
-147 3 -8 27 -28 54 -46 26 -18 89 -61 139 -96 51 -35 96 -64 100 -64 5 0 20
21 34 47 59 112 208 147 287 68 27 -27 33 -40 33 -78 0 -93 -66 -144 -202
-155 l-83 -7 -3 -141 -3 -141 80 -7 c147 -12 211 -42 243 -112 22 -50 18 -89
-13 -139 -45 -75 -171 -99 -255 -50 -40 23 -104 104 -104 131 0 26 -20 24 -72
-9 -29 -19 -101 -60 -160 -91 -60 -32 -108 -61 -108 -66 0 -20 87 -134 139
-183 120 -111 238 -157 419 -164 149 -6 230 10 344 69 96 50 157 114 206 216
35 74 37 81 36 182 0 84 -4 116 -22 161 -29 72 -115 168 -184 204 l-53 28 72
72 c103 102 128 159 127 285 0 117 -20 166 -99 249 -113 119 -310 177 -507
150z m272 -50 c101 -28 162 -63 220 -126 94 -103 116 -240 57 -366 -32 -70
-136 -178 -190 -197 -20 -8 -37 -17 -37 -20 0 -4 19 -13 43 -20 114 -34 197
-103 244 -205 25 -54 28 -71 28 -165 0 -98 -2 -110 -32 -173 -80 -169 -263
-267 -498 -267 -170 0 -306 50 -423 156 -62 55 -134 155 -117 161 6 2 65 35
133 73 68 39 126 70 131 70 4 0 22 -22 39 -49 17 -27 49 -62 73 -78 38 -25 51
-28 124 -28 72 0 86 3 123 28 54 35 82 90 82 159 0 100 -62 158 -194 183 -43
8 -91 15 -107 15 l-29 0 0 115 0 115 48 0 c104 0 204 51 232 120 7 17 10 52 8
81 -16 162 -251 185 -359 34 -18 -25 -37 -41 -43 -38 -9 6 -223 150 -234 159
-10 7 14 49 50 91 74 85 173 147 287 179 76 21 254 17 341 -7z"/>
<path d="M6302 10599 c-136 -23 -244 -127 -259 -250 -5 -41 -9 -49 -22 -43
-100 43 -159 41 -243 -9 -55 -33 -89 -81 -108 -149 l-11 -38 -68 0 c-91 0
-163 -23 -213 -68 -74 -67 -96 -156 -59 -237 39 -84 124 -130 241 -128 41 1
82 3 91 5 9 2 30 -15 50 -42 91 -118 272 -139 395 -45 l31 24 24 -25 c13 -14
47 -38 74 -52 43 -22 63 -26 135 -26 73 0 93 4 140 28 64 32 114 77 131 118
12 29 13 29 63 22 131 -19 231 10 311 90 147 147 100 399 -88 471 -47 18 -159
18 -199 0 -16 -6 -18 -1 -18 39 0 62 -25 132 -68 189 -76 99 -200 147 -330
126z m193 -48 c53 -24 123 -92 150 -146 14 -29 21 -64 22 -125 1 -47 3 -86 3
-88 0 -1 19 7 43 19 65 34 156 31 227 -7 101 -54 150 -179 116 -296 -42 -146
-222 -241 -367 -194 -28 10 -52 16 -54 14 -1 -2 -12 -22 -23 -44 -47 -93 -158
-150 -275 -142 -74 5 -129 29 -178 80 l-36 37 -24 -25 c-44 -48 -97 -68 -179
-68 -105 -1 -177 40 -221 126 l-19 37 -37 -16 c-77 -32 -213 -2 -270 59 -73
78 -49 211 47 271 56 33 144 49 208 37 57 -10 62 -7 62 32 0 74 71 163 149
187 61 18 105 13 165 -18 31 -17 56 -29 57 -28 1 1 2 29 4 62 1 33 10 76 20
95 38 76 124 143 205 161 53 12 155 2 205 -20z"/>
<path d="M428 9174 c-56 -30 -63 -81 -17 -126 27 -27 32 -43 45 -127 8 -53 21
-139 29 -191 9 -52 20 -122 25 -155 5 -33 16 -103 24 -155 9 -52 27 -169 41
-260 28 -181 65 -417 95 -607 18 -109 37 -229 71 -443 15 -95 38 -234 54 -325
8 -44 17 -104 21 -134 6 -49 5 -53 -12 -49 -53 12 -100 -54 -74 -102 10 -18 8
-26 -9 -44 -12 -12 -21 -32 -21 -45 0 -24 17 -62 32 -72 5 -3 4 -18 -2 -34
-13 -34 -6 -72 19 -100 10 -11 21 -38 24 -59 8 -49 46 -90 104 -112 48 -19 45
-11 69 -159 9 -55 18 -103 21 -107 2 -5 20 -8 38 -8 47 0 60 25 46 91 -16 75
-17 74 38 71 27 -2 59 2 71 8 31 17 12 32 -26 21 -37 -10 -79 -4 -94 14 -6 7
-13 37 -17 66 -3 30 -12 66 -19 80 -11 23 -11 29 1 39 22 18 18 44 -9 77 l-24
28 24 18 c23 17 24 17 30 0 15 -48 39 -94 55 -109 30 -27 30 -12 0 48 -36 70
-58 187 -41 217 8 16 7 28 -5 51 -23 44 -36 37 -28 -15 5 -41 3 -47 -30 -80
-38 -38 -58 -43 -77 -20 -18 22 -7 127 20 198 l23 57 43 0 c100 0 230 -84 291
-187 33 -57 63 -154 63 -206 0 -56 18 -82 152 -217 217 -219 413 -388 553
-478 39 -25 72 -47 74 -48 2 -2 -9 -18 -24 -36 -35 -42 -140 -256 -156 -320
-7 -26 -17 -48 -22 -48 -16 0 -300 291 -390 400 -48 58 -146 184 -217 279 -85
112 -132 168 -136 158 -3 -9 47 -84 129 -193 195 -258 281 -359 458 -535 139
-137 156 -159 152 -182 -14 -74 11 -99 323 -318 l241 -169 -28 -113 c-40 -159
-79 -377 -86 -481 -6 -83 -9 -94 -47 -150 -150 -226 -315 -545 -448 -866 -42
-100 -158 -415 -158 -427 0 -4 18 -28 39 -53 l39 -47 -181 -12 c-256 -17 -588
-48 -767 -71 -41 -6 -145 -19 -230 -30 -153 -19 -371 -55 -523 -85 -43 -8 -81
-15 -83 -15 -2 0 -4 -7 -4 -16 0 -10 6 -13 18 -10 45 14 411 77 560 97 395 51
719 84 1031 104 l213 13 62 -40 c99 -64 260 -135 436 -190 51 -16 45 -3 95
-218 44 -190 167 -683 176 -707 6 -17 0 -29 -29 -60 -86 -90 -174 -163 -268
-220 -132 -82 -184 -134 -184 -188 0 -24 53 -78 96 -97 148 -65 492 -7 769
130 93 45 125 93 125 186 0 59 -24 160 -45 193 -17 25 -39 251 -70 728 -3 44
-8 96 -10 116 l-5 36 103 7 c109 8 275 28 370 46 l59 11 51 -48 c69 -65 133
-108 221 -148 164 -75 375 -121 579 -126 58 -2 71 -6 86 -26 20 -24 94 -171
159 -313 21 -47 51 -100 67 -118 36 -43 94 -72 146 -72 36 0 48 6 84 43 51 51
65 91 72 217 11 194 -77 542 -154 612 -50 45 -166 62 -258 37 -57 -16 -79 -14
-175 16 -88 28 -300 123 -300 135 0 4 23 22 52 39 l52 33 250 -6 c988 -24
1786 -95 2611 -232 17 -2 92 -16 168 -31 123 -23 163 -25 144 -7 -36 36 -1099
187 -1545 220 -51 4 -95 10 -98 15 -2 5 2 88 10 186 8 98 20 248 26 333 6 85
17 234 25 330 8 96 19 241 26 322 l12 148 41 11 c72 19 160 65 199 104 39 40
46 65 23 85 -11 8 -12 18 -6 34 22 58 -36 71 -162 36 -39 -11 -73 -18 -75 -16
-2 2 12 13 31 25 49 31 96 87 96 117 0 35 -38 51 -80 34 -17 -7 -33 -11 -35
-8 -2 2 0 46 5 98 5 52 16 187 25 300 9 113 22 288 30 390 8 102 20 248 25
325 6 77 15 192 20 255 5 63 12 156 16 205 3 50 9 117 13 150 l6 60 50 14 c30
9 99 14 175 15 135 0 131 1 325 -80 116 -48 215 -62 333 -47 48 6 99 16 115
22 25 10 27 15 27 66 0 85 58 589 76 660 l5 22 -153 0 c-169 -1 -173 0 -353
81 -169 77 -291 88 -463 44 -72 -19 -96 -16 -67 8 25 21 19 77 -10 96 -51 33
-119 -18 -99 -74 5 -15 6 -63 3 -107 -4 -44 -12 -154 -19 -245 -6 -91 -17
-239 -25 -330 -8 -91 -19 -235 -25 -320 -6 -85 -18 -234 -25 -330 -8 -96 -21
-265 -30 -375 -32 -419 -36 -463 -45 -570 -5 -60 -14 -173 -20 -249 -6 -76
-13 -143 -16 -148 -3 -4 -23 -17 -45 -29 l-40 -20 26 39 c33 51 43 103 21 121
-24 20 -57 6 -116 -50 -57 -52 -186 -143 -221 -154 -38 -12 -324 153 -602 348
-73 51 -145 100 -160 110 -27 17 -28 22 -22 66 6 42 3 52 -19 77 -13 17 -61
52 -105 80 -44 27 -81 52 -81 55 0 3 15 12 33 21 89 42 195 156 240 256 l21
47 9 -39 c6 -25 6 -73 -1 -135 -5 -53 -8 -98 -6 -100 2 -2 24 4 50 14 76 29
177 132 226 231 35 72 42 96 46 162 3 55 -1 96 -12 134 -21 73 -21 71 17 51
49 -27 198 -25 252 4 49 26 92 70 79 82 -5 4 -34 13 -64 20 -134 28 -224 140
-251 311 -9 59 -8 112 2 245 8 94 14 231 13 306 l0 135 45 32 c157 108 281
272 281 371 0 47 -34 87 -104 121 -84 41 -162 58 -308 66 -117 7 -118 7 -118
32 0 55 -56 122 -103 122 -11 0 -15 26 -20 138 -9 214 -45 338 -110 384 -83
59 -236 -2 -392 -155 l-89 -88 -58 26 c-120 54 -239 78 -416 83 -191 5 -309
-11 -468 -63 -195 -64 -357 -159 -487 -284 -251 -242 -313 -549 -173 -848 l34
-71 -45 -179 c-55 -219 -65 -339 -38 -459 20 -91 51 -164 95 -229 17 -25 28
-45 25 -45 -3 0 -32 17 -63 38 -106 71 -227 140 -267 152 -41 12 -67 6 -106
-22 -38 -26 -342 214 -612 483 -159 159 -167 169 -167 206 0 106 -59 243 -139
324 -78 77 -156 114 -243 114 -78 0 -67 -18 -93 155 -9 58 -20 132 -25 165
-17 105 -49 306 -70 445 -11 74 -27 173 -35 220 -22 130 -45 285 -45 309 0 16
20 30 103 70 56 27 132 56 168 65 99 24 251 21 397 -9 140 -28 241 -31 357
-11 158 28 332 103 328 141 -1 11 -9 62 -18 114 -44 269 -75 577 -75 759 0 61
-3 112 -7 112 -3 0 -30 -11 -59 -25 -111 -52 -290 -81 -444 -71 -53 3 -161 19
-240 36 -80 16 -175 30 -211 30 -141 0 -324 -49 -427 -114 -40 -25 -40 -25
-45 -4 -3 11 1 31 9 44 20 30 10 78 -19 99 -27 19 -74 19 -109 -1z m107 -48
c8 -25 6 -31 -18 -52 -33 -28 -63 -31 -89 -7 -42 38 -4 94 62 90 28 -2 36 -7
45 -31z m1425 -128 c0 -195 52 -676 86 -790 4 -13 -9 -24 -53 -46 -180 -90
-386 -115 -593 -70 -82 18 -135 22 -245 22 -125 -1 -149 -4 -220 -28 -44 -15
-113 -45 -152 -66 -71 -38 -73 -39 -77 -17 -2 12 -16 99 -30 192 -40 258 -76
485 -101 640 -18 107 -21 143 -12 152 22 21 151 81 227 104 63 20 97 24 215
24 118 0 158 -4 257 -27 207 -49 491 -35 638 30 25 12 48 21 53 21 4 1 7 -63
7 -141z m-1440 24 c0 -5 7 -49 14 -98 8 -49 26 -163 41 -254 14 -91 32 -208
41 -260 8 -52 19 -122 24 -155 5 -33 16 -105 25 -160 9 -55 20 -127 25 -160 5
-33 16 -103 24 -155 8 -52 20 -124 25 -160 6 -36 13 -83 16 -105 4 -22 17
-110 31 -195 13 -85 28 -182 34 -215 5 -33 16 -105 25 -160 9 -55 20 -127 25
-160 5 -33 14 -90 20 -126 10 -65 6 -99 -10 -99 -12 0 -24 20 -27 45 -2 11
-10 61 -18 110 -13 80 -69 427 -125 770 -10 66 -28 179 -40 250 -11 72 -27
171 -35 220 -69 432 -88 551 -111 695 -14 91 -32 198 -40 239 -19 98 -18 128
4 134 28 8 32 7 32 -1z m4051 -1378 c63 -32 109 -202 109 -400 0 -101 -1 -104
-22 -104 -13 -1 -34 -7 -48 -15 -35 -20 -37 -19 -59 23 -20 38 -97 122 -113
122 -15 0 -8 -13 32 -61 22 -26 49 -63 61 -83 l21 -36 -24 -30 c-22 -28 -26
-30 -76 -24 -115 12 -324 86 -374 131 -78 70 123 353 321 451 90 45 125 51
172 26z m-748 -165 c97 -19 238 -61 266 -78 9 -6 5 -22 -19 -69 -43 -82 -49
-138 -19 -176 40 -51 182 -106 394 -152 39 -9 40 -10 37 -50 -4 -56 41 -111
99 -120 l39 -7 0 -50 c0 -74 18 -170 52 -279 25 -82 37 -103 69 -133 35 -31
45 -35 94 -35 31 0 76 9 106 20 28 12 54 18 57 15 15 -14 13 -157 -3 -351 -21
-235 -15 -319 26 -427 39 -101 142 -196 232 -212 47 -9 44 -24 -13 -52 -33
-17 -61 -23 -114 -23 -89 0 -147 26 -189 86 -17 24 -32 42 -34 40 -2 -2 11
-46 29 -97 28 -81 32 -108 33 -194 0 -94 -2 -105 -33 -167 -37 -75 -116 -168
-174 -204 -21 -13 -41 -24 -45 -24 -5 0 -7 54 -5 120 2 92 -1 135 -14 178 -19
63 -14 68 -50 -51 -20 -68 -94 -179 -153 -229 -22 -19 -63 -47 -91 -62 l-50
-27 -127 73 c-135 77 -267 132 -345 143 -32 5 -55 16 -74 36 -28 29 -117 69
-154 69 -13 0 -20 7 -20 19 0 15 13 24 53 37 75 24 203 90 272 139 59 42 192
173 211 207 9 17 12 17 49 -2 48 -24 130 -26 202 -5 103 31 203 158 218 278
11 87 -33 174 -106 212 -38 20 -120 29 -161 17 -35 -10 -37 -9 -43 16 -12 57
-24 183 -31 319 l-7 142 39 -10 c22 -4 48 -9 59 -9 32 0 4 16 -50 29 -121 30
-264 106 -374 199 -69 59 -163 177 -203 256 -17 33 -33 55 -36 48 -6 -20 16
-166 39 -250 10 -40 19 -74 19 -77 0 -23 -117 26 -191 81 -86 63 -177 203
-214 329 -28 94 -27 93 -35 65 -10 -34 4 -226 24 -334 10 -48 15 -91 12 -93
-11 -12 -159 73 -213 122 -73 66 -115 137 -146 243 l-24 83 -43 -68 c-60 -92
-207 -238 -307 -304 -84 -54 -105 -77 -57 -58 15 5 29 8 31 5 8 -7 -48 -301
-60 -312 -2 -3 -14 18 -26 45 -101 236 -70 501 83 699 124 161 329 299 559
377 193 64 462 83 650 44z m951 -400 c24 -27 28 -38 23 -75 -9 -81 -85 -144
-174 -144 -122 0 -153 110 -56 202 69 66 156 73 207 17z m-1770 -171 c42 -114
142 -226 255 -287 57 -30 147 -58 157 -48 3 3 0 25 -7 48 -15 57 -48 263 -43
268 5 5 1 12 49 -83 51 -101 146 -198 236 -243 68 -33 156 -60 166 -50 3 3 -6
48 -21 99 -40 141 -36 154 23 77 60 -80 146 -159 232 -215 68 -44 171 -94 195
-94 11 0 14 -17 14 -68 0 -86 27 -366 39 -408 6 -21 5 -36 -2 -43 -20 -20 2
-23 49 -7 119 41 219 -2 254 -110 33 -100 -45 -260 -154 -316 -24 -12 -68 -23
-107 -26 -62 -4 -96 5 -170 45 -4 2 -18 -15 -32 -39 -52 -88 -206 -218 -332
-281 -132 -66 -306 -107 -451 -107 -219 0 -490 112 -662 275 -94 89 -135 146
-178 250 -27 66 -29 78 -29 215 0 143 1 148 57 370 66 262 93 383 103 462 7
56 8 58 74 107 71 53 190 173 231 233 28 42 30 41 54 -24z m2066 38 c169 -28
260 -81 260 -151 0 -44 -38 -123 -87 -183 -91 -111 -285 -241 -383 -257 -42
-7 -94 17 -123 56 -33 46 -77 215 -83 319 l-5 95 47 22 48 22 46 -47 c25 -26
58 -63 73 -82 14 -19 29 -31 33 -28 10 10 -29 68 -80 118 -25 24 -46 48 -46
53 0 4 12 24 28 43 27 34 28 34 107 34 44 0 118 -6 165 -14z m971 -222 c26
-31 -25 -70 -56 -44 -18 15 -19 47 -2 53 24 10 45 7 58 -9z m399 -89 c32 -8
98 -33 147 -56 157 -73 202 -83 345 -83 124 1 127 0 123 -20 -18 -80 -54 -388
-64 -543 -4 -67 -9 -125 -12 -127 -10 -10 -137 -26 -204 -26 -85 0 -163 19
-270 66 -44 20 -105 43 -135 52 -71 20 -244 20 -322 -1 l-58 -15 0 46 c0 26 6
117 14 202 8 85 20 226 27 312 12 155 12 157 38 167 98 40 271 52 371 26z
m-424 -52 c-7 -61 -30 -344 -46 -553 -5 -69 -14 -177 -19 -240 -6 -63 -15
-182 -21 -265 -6 -82 -17 -229 -25 -325 -8 -96 -19 -245 -25 -330 -6 -85 -17
-231 -25 -325 -8 -93 -19 -235 -25 -315 -7 -80 -13 -152 -14 -160 -2 -21 -15
-40 -28 -40 -12 0 -10 26 37 610 8 96 19 240 25 320 6 80 15 197 21 260 5 63
14 174 19 245 5 72 16 216 25 320 15 182 22 274 45 595 17 249 19 260 42 260
18 0 19 -5 14 -57z m-5175 -27 l36 -25 -11 -50 -10 -51 -25 16 c-44 28 -81 67
-81 85 0 20 26 49 43 49 7 0 28 -11 48 -24z m-27 -131 c22 -13 45 -38 52 -55
15 -35 49 -51 82 -39 25 10 39 -8 28 -37 -15 -38 -194 17 -232 70 -17 25 -18
58 -2 74 17 17 27 15 72 -13z m196 -77 c0 -19 -2 -20 -10 -8 -13 19 -13 30 0
30 6 0 10 -10 10 -22z m-94 -102 c41 -9 76 -42 72 -69 -3 -20 -9 -22 -58 -21
-90 2 -180 59 -180 114 0 15 3 29 6 32 3 4 33 -6 67 -22 34 -15 76 -31 93 -34z
m-79 -97 c15 -7 52 -17 82 -23 56 -12 79 -32 68 -60 -9 -23 -93 -22 -130 2
-34 23 -56 52 -57 75 0 20 1 20 37 6z m172 -214 c6 -44 14 -95 17 -113 6 -31
5 -33 -17 -30 -20 3 -24 11 -35 78 -24 151 -24 149 -6 153 26 6 30 -2 41 -88z
m1301 -459 c68 -35 328 -196 466 -289 45 -30 87 -56 94 -59 8 -2 -7 -24 -38
-55 -55 -55 -72 -97 -72 -175 0 -114 87 -243 180 -268 58 -16 133 0 188 40
l39 28 16 -33 c44 -93 139 -155 239 -155 108 0 266 73 335 154 33 39 83 144
83 174 0 22 3 23 43 17 68 -12 206 -71 328 -142 167 -97 339 -210 346 -229 20
-53 -74 -282 -168 -407 -50 -66 -123 -127 -153 -127 -33 0 -289 172 -413 277
-70 60 -81 58 -27 -5 l35 -42 -16 -87 c-10 -49 -20 -151 -24 -228 l-6 -140
-95 -31 c-142 -47 -263 -66 -459 -71 -311 -9 -610 49 -781 151 l-55 32 -3 60
c-9 171 92 628 200 898 21 54 37 100 35 103 -8 7 -84 -151 -112 -232 -16 -44
-29 -81 -30 -82 -5 -7 -469 324 -509 363 -38 37 -38 37 -32 97 14 119 122 357
203 447 55 61 73 63 163 16z m692 -408 c61 -25 77 -36 72 -48 -15 -34 -21
-106 -12 -139 6 -22 30 -55 61 -85 60 -59 58 -67 -33 -113 -75 -39 -120 -41
-175 -10 -156 88 -169 331 -22 413 12 6 24 12 26 13 3 1 40 -13 83 -31z m270
-73 c72 -6 267 7 301 20 29 12 21 -46 -12 -93 -39 -52 -108 -99 -190 -128
-113 -40 -189 -28 -246 38 -39 47 -41 53 -20 74 8 8 17 31 20 52 11 61 11 62
44 52 16 -4 62 -11 103 -15z m-172 -35 c-8 -42 -20 -65 -20 -38 0 29 12 78 20
78 4 0 4 -18 0 -40z m648 -36 c60 -35 69 -60 48 -125 -37 -111 -120 -191 -244
-235 -105 -37 -217 -28 -274 23 -33 28 -78 104 -78 130 0 21 5 23 48 23 128 0
286 83 349 183 24 38 26 39 66 33 23 -4 61 -18 85 -32z m1035 -703 c221 -152
357 -236 486 -301 l85 -42 35 17 c57 27 141 86 200 141 31 28 66 56 79 63 20
11 22 10 22 -14 0 -38 -23 -76 -75 -124 -26 -24 -44 -45 -42 -48 12 -12 102
24 208 83 112 62 138 72 152 57 9 -8 -18 -49 -52 -80 -30 -26 -176 -103 -197
-103 -8 0 -14 -4 -14 -10 0 -5 6 -10 13 -10 28 1 169 29 249 50 89 23 118 22
118 -5 0 -28 -119 -72 -293 -110 -42 -9 -75 -21 -72 -26 4 -5 16 -7 28 -5 12
3 60 12 107 21 47 9 114 28 148 42 46 18 70 23 84 16 20 -9 20 -9 -5 -39 -40
-47 -134 -92 -264 -125 -131 -33 -197 -60 -230 -91 -29 -27 -29 -40 3 -118 31
-78 37 -140 12 -140 -7 0 -77 63 -154 139 l-141 138 -189 68 c-236 84 -476
187 -608 260 -56 31 -104 60 -108 63 -3 4 19 41 49 82 55 74 143 242 143 274
0 9 5 16 11 16 5 0 101 -62 212 -139z m-830 -131 c114 -85 255 -170 283 -170
12 0 39 13 60 29 l40 28 74 -44 c153 -91 465 -226 734 -318 l109 -37 139 -136
c76 -75 148 -141 160 -147 16 -7 24 -4 39 14 26 32 23 74 -10 156 -19 47 -26
75 -20 86 10 19 85 57 131 66 l30 6 -6 -44 c-3 -24 -10 -109 -16 -189 -5 -80
-17 -228 -24 -330 -8 -102 -22 -286 -31 -410 -9 -124 -18 -244 -21 -267 l-5
-43 -65 0 c-36 0 -118 4 -182 10 -213 17 -553 33 -850 39 l-293 6 106 84 c152
121 267 262 289 353 7 32 5 34 -115 118 -52 36 -148 117 -214 182 -115 111
-171 179 -380 461 l-95 128 0 94 c0 79 10 186 25 270 2 11 4 32 4 48 1 15 3
27 6 27 3 0 47 -31 98 -70z m-1500 -350 c45 -27 87 -50 94 -50 7 0 13 -3 13
-7 0 -3 -26 -70 -59 -147 -71 -171 -145 -395 -177 -536 -23 -101 -32 -183 -13
-110 50 186 98 344 140 458 60 165 128 322 139 322 5 0 55 -11 112 -24 320
-76 650 -76 934 0 50 13 107 30 127 39 l36 15 34 -43 c19 -23 82 -107 140
-187 208 -286 297 -379 520 -543 59 -44 107 -81 107 -84 0 -16 -57 -113 -95
-164 -96 -124 -320 -291 -530 -394 -357 -176 -852 -258 -1270 -210 -154 18
-242 38 -430 100 -201 66 -367 151 -455 232 -45 42 -70 73 -70 86 0 64 207
570 342 836 85 169 257 461 271 461 5 0 45 -22 90 -50z m3333 -132 c-6 -36
-19 -200 -36 -438 -6 -85 -17 -231 -25 -325 -8 -93 -20 -248 -26 -342 -12
-172 -13 -173 -36 -173 -18 0 -23 4 -19 18 3 9 8 60 11 112 3 52 10 145 15
205 5 61 12 151 15 200 3 50 10 142 15 205 5 63 17 212 26 330 9 118 18 221
20 228 2 6 13 12 24 12 18 0 20 -5 16 -32z m-1663 -1367 c92 -51 202 -93 297
-116 118 -27 138 -39 162 -93 64 -144 -26 -347 -116 -263 -17 15 -42 21 -121
26 -328 21 -617 120 -767 263 -43 41 -47 52 -17 52 48 0 333 100 428 150 20
11 42 19 49 20 7 0 45 -18 85 -39z m658 -142 c73 -52 158 -359 159 -574 0 -76
-21 -171 -45 -209 -35 -53 -108 -63 -170 -22 -34 22 -81 94 -116 178 -17 40
-35 77 -40 82 -16 17 -10 23 30 30 47 7 95 45 110 86 5 17 8 30 5 30 -2 0 -20
-18 -40 -40 -30 -33 -81 -60 -116 -60 -4 0 -21 27 -38 60 l-30 60 26 0 c36 0
89 56 105 111 27 96 8 212 -43 266 -25 26 -18 31 52 35 60 4 117 -8 151 -33z
m-2216 -34 c73 -13 187 -27 253 -31 l121 -7 5 -51 c3 -28 12 -143 21 -256 21
-278 45 -532 51 -549 8 -24 -46 -82 -100 -107 -78 -37 -144 -29 -281 32 -56
24 -57 25 -36 40 11 8 21 25 21 37 0 18 -102 441 -195 809 -30 115 -30 122 -9
114 9 -4 76 -17 149 -31z m485 -977 c6 -18 14 -64 17 -103 10 -129 -25 -168
-221 -244 -186 -72 -291 -95 -456 -95 -135 -1 -148 1 -187 23 -24 14 -47 37
-54 53 -21 52 0 73 200 203 61 40 91 53 105 49 43 -14 112 -53 135 -78 25 -27
41 -33 41 -17 0 22 -55 72 -110 99 l-58 30 44 43 45 44 47 -18 c186 -71 215
-76 295 -53 38 11 68 28 94 55 21 21 41 39 45 40 3 0 11 -14 18 -31z"/>
<path d="M1028 8873 c-220 -83 -284 -328 -129 -496 119 -129 326 -134 453 -10
36 35 66 88 55 99 -3 3 -26 -11 -51 -30 -126 -96 -286 -64 -355 71 -47 93 -11
210 83 268 44 26 58 30 125 30 42 0 94 -4 116 -9 l40 -9 -23 26 c-60 64 -220
95 -314 60z m197 -22 c14 -6 3 -10 -39 -15 -93 -11 -169 -62 -210 -143 -23
-46 -21 -153 3 -202 59 -115 213 -171 322 -117 40 20 36 6 -5 -21 -121 -78
-255 -68 -360 28 -95 87 -122 218 -68 326 27 52 101 117 155 137 44 15 169 20
202 7z"/>
<path d="M1425 8723 c8 -27 15 -49 15 -51 0 -1 -21 -12 -46 -22 -55 -24 -53
-42 5 -53 23 -5 44 -14 46 -20 2 -7 9 -31 15 -54 6 -24 15 -43 19 -43 5 0 18
23 31 51 l22 51 48 -6 c64 -9 72 7 25 47 l-37 32 23 47 c12 26 19 51 15 55 -4
4 -26 -3 -49 -15 -52 -27 -51 -27 -91 3 -49 37 -57 33 -41 -22z m70 -33 c4 -6
18 -4 37 6 29 15 31 15 23 -2 -17 -43 -16 -53 4 -66 32 -19 25 -30 -14 -22
-32 6 -35 4 -48 -27 l-14 -34 -10 35 c-7 28 -16 36 -39 41 l-29 6 27 11 c35
14 40 25 28 56 -9 24 -8 26 10 16 10 -5 22 -15 25 -20z"/>
<path d="M2900 6661 c-52 -11 -110 -45 -149 -85 -42 -44 -33 -46 28 -6 65 41
159 64 217 52 49 -11 63 -3 36 21 -21 20 -85 28 -132 18z"/>
<path d="M3715 6471 c-15 -6 -2 -11 50 -20 131 -23 202 -70 259 -171 30 -53
36 -27 7 35 -26 58 -67 102 -125 135 -41 24 -62 30 -111 29 -33 0 -69 -4 -80
-8z"/>
<path d="M2832 6367 c-47 -14 -117 -80 -143 -134 -25 -52 -31 -153 -11 -188
10 -17 11 -12 6 26 -10 73 18 151 74 209 61 63 115 79 178 55 73 -28 113 -91
118 -185 1 -16 5 -32 10 -37 17 -17 0 123 -20 162 -39 76 -132 116 -212 92z"/>
<path d="M3655 6211 c-45 -20 -99 -76 -118 -124 -19 -45 -29 -99 -17 -92 6 3
10 14 10 23 0 33 61 122 101 149 61 40 134 39 185 -3 78 -63 105 -179 65 -283
-26 -69 -21 -77 10 -14 28 57 37 172 19 227 -36 109 -154 163 -255 117z"/>
<path d="M2860 6192 c-34 -35 -55 -98 -46 -144 13 -71 92 -107 152 -69 40 24
69 104 59 158 -15 82 -107 113 -165 55z m140 -36 c0 -20 -27 -39 -45 -32 -25
9 -30 37 -10 52 20 15 55 2 55 -20z"/>
<path d="M3705 6071 c-48 -21 -85 -84 -85 -145 0 -45 38 -98 77 -109 100 -29
188 153 112 229 -27 26 -74 38 -104 25z m95 -46 c15 -18 7 -43 -16 -52 -11 -4
-22 1 -30 12 -12 16 -11 21 3 37 20 22 27 22 43 3z"/>
<path d="M3511 5964 c0 -11 3 -14 6 -6 3 7 2 16 -1 19 -3 4 -6 -2 -5 -13z"/>
<path d="M3094 5930 c-31 -12 -64 -59 -64 -89 0 -60 62 -115 107 -96 15 6 13
9 -11 16 -15 4 -37 16 -47 25 -25 23 -25 78 1 104 21 21 55 26 65 10 9 -15 25
-12 25 5 0 14 -30 36 -47 34 -4 0 -18 -4 -29 -9z"/>
<path d="M4365 5751 c-38 -17 -88 -61 -69 -61 5 0 31 11 58 25 100 51 153 20
140 -82 -5 -37 -4 -45 5 -37 19 18 25 90 11 125 -21 50 -76 62 -145 30z"/>
<path d="M2946 5623 c-11 -11 -6 -19 23 -36 21 -12 30 -27 35 -57 10 -64 46
-149 78 -185 77 -88 243 -67 346 44 41 44 102 151 102 177 0 39 -17 41 -92 16
-127 -42 -305 -31 -442 27 -24 11 -47 17 -50 14z m538 -74 c-10 -12 -41 -32
-69 -45 -42 -20 -66 -24 -152 -24 -103 0 -197 14 -220 32 -20 16 -17 52 3 44
10 -4 58 -14 108 -22 99 -17 211 -10 291 20 55 20 61 19 39 -5z m-119 -156
c15 -9 14 -12 -10 -31 -61 -48 -196 -56 -237 -14 l-22 21 45 21 c36 17 58 20
125 17 45 -3 89 -9 99 -14z"/>
<path d="M6340 6481 c-79 -24 -152 -95 -171 -165 -49 -182 126 -354 305 -302
52 15 128 67 116 79 -3 3 -31 -1 -62 -9 -94 -24 -167 7 -208 87 -26 50 -25 96
3 149 45 85 148 113 243 65 58 -29 54 -29 54 -11 0 24 -81 86 -134 101 -53 16
-106 18 -146 6z m155 -37 l30 -14 -28 5 c-73 14 -180 -47 -206 -118 -17 -45
-13 -124 9 -167 29 -56 100 -99 169 -101 23 0 24 -1 6 -9 -73 -31 -197 12
-250 88 -27 39 -30 51 -30 121 0 66 4 83 25 115 39 58 112 96 185 95 33 0 74
-6 90 -15z"/>
<path d="M6657 6343 c-4 -3 -7 -23 -7 -44 0 -36 -1 -37 -45 -43 -25 -4 -45
-11 -45 -16 0 -5 15 -18 34 -29 32 -20 33 -23 25 -59 -11 -49 -11 -52 4 -52 7
0 23 14 36 30 l22 31 33 -21 c18 -11 36 -20 40 -20 10 0 7 39 -4 61 -9 16 -6
24 20 45 16 14 30 30 30 35 0 5 -20 9 -45 9 -42 0 -46 2 -65 40 -22 42 -23 44
-33 33z m60 -98 c26 6 29 0 9 -21 -8 -8 -12 -23 -9 -35 5 -19 4 -20 -13 -11
-15 8 -23 7 -38 -6 -18 -16 -19 -16 -13 6 4 16 -1 27 -16 37 -21 15 -21 15 6
15 23 0 27 4 28 28 0 27 0 27 11 4 9 -18 17 -22 35 -17z"/>
<path d="M3670 3245 c0 -19 101 -200 165 -295 104 -157 210 -271 309 -336 48
-31 25 1 -38 51 -81 66 -208 223 -298 368 -42 67 -90 145 -107 172 -17 28 -31
46 -31 40z"/>
<path d="M3041 8855 c-16 -14 -31 -36 -33 -48 -14 -80 101 -125 152 -59 34 43
25 94 -21 117 -40 21 -63 19 -98 -10z m94 -25 c29 -32 10 -74 -33 -78 -40 -4
-62 12 -62 44 0 24 33 54 61 54 9 0 24 -9 34 -20z"/>
<path d="M2356 8684 c-8 -20 -8 -618 0 -638 5 -13 23 -16 90 -16 l84 0 2 166
3 166 79 -138 c122 -213 101 -194 212 -194 l94 0 -2 333 -3 332 -85 0 -85 0
-5 -174 -5 -173 -98 176 -99 176 -88 0 c-71 0 -89 -3 -94 -16z m230 -129 c115
-206 159 -279 172 -283 9 -3 12 41 12 197 l0 201 60 0 60 0 0 -305 0 -305 -74
0 -73 0 -109 187 c-60 103 -113 188 -119 188 -6 0 -11 -71 -13 -187 l-2 -188
-60 0 -60 0 0 298 c0 164 3 302 7 306 4 4 37 6 73 4 l65 -3 61 -110z"/>
<path d="M3011 8687 c-8 -11 -11 -101 -9 -333 l3 -319 90 0 90 0 0 330 0 330
-81 3 c-60 2 -84 -1 -93 -11z m149 -322 l0 -305 -65 0 -65 0 0 298 c0 164 3
302 7 305 3 4 33 7 65 7 l58 0 0 -305z"/>
<path d="M3400 8689 c-104 -42 -156 -157 -115 -257 30 -69 62 -94 187 -138 40
-15 81 -33 91 -42 43 -38 -9 -91 -76 -78 -20 4 -57 22 -82 41 -25 19 -49 35
-54 35 -15 0 -111 -83 -111 -96 0 -6 18 -28 40 -47 114 -104 272 -122 387 -44
62 42 88 94 88 173 0 92 -31 132 -142 184 -147 68 -158 74 -161 92 -9 45 85
46 137 3 16 -14 35 -25 42 -25 21 1 110 90 107 108 -4 20 -91 79 -136 92 -46
12 -169 12 -202 -1z m223 -43 c28 -14 60 -32 70 -40 18 -14 17 -16 -15 -45
-37 -34 -54 -38 -77 -17 -43 36 -141 37 -168 0 -33 -45 -4 -77 117 -124 138
-54 194 -126 176 -224 -15 -78 -90 -139 -188 -152 -68 -9 -173 25 -227 73
l-41 38 39 33 40 33 41 -30 c82 -59 160 -65 200 -14 44 56 11 100 -109 143
-134 48 -181 97 -181 187 0 140 169 213 323 139z"/>
<path d="M4001 8682 c-14 -26 -211 -624 -211 -640 0 -10 21 -12 87 -10 l88 3
19 53 19 53 100 -3 100 -3 20 -52 20 -53 88 0 c49 0 89 3 89 8 0 14 -214 637
-223 650 -6 8 -39 12 -98 12 -75 0 -90 -3 -98 -18z m179 -32 c8 -15 167 -478
194 -567 7 -22 5 -23 -53 -23 l-60 0 -19 53 -20 52 -112 3 c-68 2 -117 -1
-125 -8 -7 -6 -18 -31 -25 -55 l-13 -45 -62 0 -63 0 52 158 c29 86 74 223 101
305 l49 147 73 0 c61 0 74 -3 83 -20z"/>
<path d="M4065 8423 c-20 -65 -39 -126 -41 -135 -5 -16 3 -18 75 -18 71 0 81
2 81 18 0 19 -66 241 -74 249 -2 3 -21 -49 -41 -114z m85 -120 c0 -2 -20 -3
-45 -3 -25 0 -45 3 -45 7 0 4 10 39 22 77 l22 69 23 -74 c12 -41 23 -75 23
-76z"/>
<path d="M4475 8687 c-3 -7 -4 -156 -3 -332 l3 -320 85 0 85 0 5 165 5 165 27
-50 c16 -27 58 -102 96 -165 l67 -115 98 -3 97 -3 -2 333 -3 333 -85 0 -85 0
-5 -175 -5 -175 -79 140 c-43 77 -89 157 -102 178 l-24 37 -85 0 c-60 0 -87
-4 -90 -13z m276 -217 c62 -110 118 -199 124 -197 6 2 11 77 13 200 l2 197 60
0 60 0 0 -305 0 -305 -73 0 -72 0 -94 163 c-107 185 -129 217 -142 217 -5 0
-9 -79 -9 -190 l0 -190 -60 0 -60 0 0 305 0 305 69 0 69 0 113 -200z"/>
<path d="M5870 8511 c-109 -34 -229 -162 -230 -247 0 -31 -8 -34 -45 -18 -66
27 -161 13 -216 -33 -36 -30 -79 -115 -78 -153 0 -14 6 -41 13 -61 l12 -36
-48 -17 c-129 -46 -146 -222 -29 -299 62 -40 103 -52 181 -52 60 0 85 5 127
26 l52 25 23 -35 c13 -20 47 -50 77 -68 130 -78 303 -68 433 23 l48 34 45 -32
c40 -28 56 -33 118 -36 84 -4 128 11 177 59 31 31 34 32 125 33 89 1 95 3 132
32 24 20 43 46 52 73 26 81 -31 166 -118 178 l-39 5 1 72 c1 58 -3 79 -23 116
-53 95 -176 134 -301 96 l-46 -14 -6 53 c-11 111 -76 203 -179 255 -55 27 -70
30 -147 29 -47 0 -97 -4 -111 -8z m210 -28 c67 -22 146 -92 176 -158 18 -37
24 -68 24 -117 0 -38 2 -68 5 -68 4 0 18 6 33 14 16 8 55 19 88 25 173 32 292
-96 242 -260 -6 -22 -9 -41 -7 -44 3 -2 21 0 40 4 48 11 93 -8 119 -51 24 -39
25 -69 5 -112 -29 -61 -118 -86 -225 -63 -32 7 -37 5 -55 -25 -36 -60 -144
-93 -219 -68 -20 6 -53 27 -73 46 -19 19 -38 34 -41 34 -2 0 -20 -14 -39 -30
-112 -98 -283 -121 -413 -55 -50 25 -110 86 -110 110 0 21 -11 19 -66 -12 -43
-25 -60 -28 -134 -28 -72 0 -93 4 -135 26 -67 34 -95 77 -95 144 0 80 55 135
135 135 41 0 42 3 14 55 -40 77 -6 180 72 225 61 34 116 36 174 6 28 -14 53
-26 56 -26 3 0 9 22 12 49 14 118 100 213 227 252 44 13 136 10 190 -8z"/>
<path d="M722 4944 c-93 -46 -152 -136 -160 -244 l-4 -65 -72 3 c-65 3 -75 1
-117 -26 -60 -39 -104 -122 -96 -182 8 -59 40 -103 98 -135 58 -31 161 -45
196 -26 18 9 27 5 64 -33 94 -94 258 -101 376 -15 40 28 46 30 61 16 76 -67
196 -63 272 9 21 20 31 22 56 15 41 -12 142 4 173 27 63 46 92 125 72 193 -25
82 -91 129 -185 129 l-56 0 0 43 c0 61 -28 108 -80 135 -56 28 -92 28 -157 -2
l-51 -24 -20 46 c-44 108 -127 162 -248 162 -55 0 -81 -5 -122 -26z m218 -15
c79 -35 130 -99 145 -182 4 -20 9 -37 12 -37 2 0 22 14 43 31 71 57 174 49
217 -17 10 -16 16 -46 16 -83 l0 -57 71 1 c84 0 123 -19 155 -75 26 -47 27
-100 1 -149 -34 -68 -138 -100 -215 -67 -28 12 -31 10 -65 -25 -39 -41 -104
-64 -151 -54 -16 4 -52 22 -80 41 l-51 34 -19 -24 c-33 -41 -125 -79 -194 -80
-82 0 -167 39 -196 89 -18 30 -26 35 -43 29 -12 -4 -50 -9 -86 -11 -54 -4 -72
0 -110 20 -66 35 -93 79 -88 144 6 64 43 117 102 144 51 23 79 24 140 3 26 -9
49 -14 51 -12 2 2 0 23 -6 46 -16 73 14 166 75 230 73 78 184 103 276 61z"/>
</g>
</svg>
